# xmcd
#
# Track frame offsets:
#	150
#	14128
#	23616
#	37012
#	50426
#	68054
#	84684
#	98116
#	108651
#	124294
#	135910
#	145849
#	159862
#	172433
#	190103
#	209953
#	228498
#	246732
#	257248
#	269195
#	279714
#	292387
#	307259
#	318282
#	331139
#	343970
#
# Disc length: 4753 seconds
#
# Revision: 0
# Processed by: cddbd v1.5.1PL0 Copyright (c) Steve Scherf et al.
# Submitted via: audiograbber 1.82.02
#
DISCID=b0128f1a
DTITLE=Золотое Кольцо - Звездная Коллекция 2003
DYEAR=1900
DGENRE=Pop
TTITLE0=Подари Берёзка
TTITLE1=Течет Ручей
TTITLE2=Заплутавшее Щастье
TTITLE3=Озера Тихие
TTITLE4=Я Не Колдунья
TTITLE5=С Ярморки Ехал Ухарь-Купец
TTITLE6=Будь Счастлив
TTITLE7=Я Самс Любовь
TTITLE8=Печальный Ветер
TTITLE9=Выйду На Улицу
TTITLE10=Задумал Да Старый Дед
TTITLE11=Окрасился Месяц Багрянцем
TTITLE12=Оттепель
TTITLE13=Москва Златоглавая
TTITLE14=Ах, Судьба Моя, Судьба
TTITLE15=Шальное Лето
TTITLE16=Расцвела Под Окошком Белоснежная Вишня
TTITLE17=Виновата Ли Я
TTITLE18=Давай, Дружок, На Посошок
TTITLE19=Луна Краса
TTITLE20=Уходи Горе
TTITLE21=Золотое Кольцо
TTITLE22=Бабье Лето
TTITLE23=Фонарики
TTITLE24=Пой, Гитара, Пой
TTITLE25=Зачем Это Лето
EXTD=
EXTT0=
EXTT1=
EXTT2=
EXTT3=
EXTT4=
EXTT5=
EXTT6=
EXTT7=
EXTT8=
EXTT9=
EXTT10=
EXTT11=
EXTT12=
EXTT13=
EXTT14=
EXTT15=
EXTT16=
EXTT17=
EXTT18=
EXTT19=
EXTT20=
EXTT21=
EXTT22=
EXTT23=
EXTT24=
EXTT25=
PLAYORDER=
